<?xml version="1.0" encoding="utf-8"?>
<!-- Generator: Adobe Illustrator 16.0.0, SVG Export Plug-In . SVG Version: 6.00 Build 0)  -->
<!DOCTYPE svg PUBLIC "-//W3C//DTD SVG 1.1//EN" "http://www.w3.org/Graphics/SVG/1.1/DTD/svg11.dtd">
<svg version="1.1" id="Capa_1" xmlns="http://www.w3.org/2000/svg" xmlns:xlink="http://www.w3.org/1999/xlink" x="0px" y="0px"
	 width="211.5px" height="188.75px" viewBox="0 0 211.5 188.75" enable-background="new 0 0 211.5 188.75" xml:space="preserve">
<rect x="5.998" y="6.006" fill="#005897" width="199.418" height="150.828"/>
<rect x="5.914" y="156.83" fill="#D10019" width="199.502" height="26.203"/>
<rect x="85.657" y="156.83" fill="#FFFFFF" width="40.015" height="26.199"/>
<path fill="#FFFFFF" d="M200.46,83.898v-7.631c-2.446-0.188-5.367-0.564-7.627-0.941V37.649c-6.5-0.188-13.375,0.096-18.934,0.661
	v7.722c2.354,0.189,4.993,0.565,6.878,0.849v13.468c0,8.195-4.806,15.072-10.928,15.072c-4.427,0-5.746-2.922-5.746-7.725V37.649
	c-6.969-0.188-14.224,0.096-19.688,0.755v7.628c2.451,0.189,5.464,0.565,7.726,0.942v23.642c0,8.193,3.392,14.881,13.94,14.881
	c7.63,0,13.094-3.861,15.919-9.324h0.188c-0.471,2.637-0.566,6.123-0.566,8.477C187.746,84.839,194.999,84.556,200.46,83.898z"/>
<polygon fill="#FFFFFF" points="186.237,21.638 180.682,13.537 164.765,25.311 169.19,31.811 "/>
<path fill="#FFFFFF" d="M142.187,36.803c-9.04-0.754-13.563,4.426-15.823,10.36h-0.189c0.568-3.297,0.85-7.063,0.85-9.514
	c-6.311-0.188-13.564,0.096-19.498,0.849v7.534c2.731,0.189,5.934,0.565,8.193,0.942v28.822c-2.825,0.189-5.742,0.66-8.193,1.131
	v7.629h28.351v-7.629c-2.446-0.471-5.368-0.941-8.193-1.131V65.435c0-12.998,4.332-18.648,13.94-16.859L142.187,36.803z"/>
<path fill="#FFFFFF" d="M103.382,57.712c0-11.68-6.027-20.91-19.686-20.91c-14.035,0-21.946,10.455-21.946,24.771
	c0,16.484,8.289,23.924,23.076,23.924c5.745,0,11.868-1.035,16.954-3.107l-1.318-9.137c-4.427,1.979-9.137,2.826-13.563,2.826
	c-8.667,0-12.999-4.238-12.905-12.811h29.011C103.287,61.103,103.382,59.314,103.382,57.712z M74.184,55.169
	c0.659-5.841,4.145-9.607,9.136-9.607c5.086,0,8.289,3.484,8.101,9.607H74.184z"/>
<path fill="#FFFFFF" d="M35.443,62.328c15.447,0,24.866-9.701,24.866-22.041c0-12.432-8.571-19.686-24.112-19.686
	c-6.594,0-14.882,0.377-17.896,0.377h-7.347v7.629c2.449,0.471,5.367,0.941,8.193,1.131v46.058c-2.826,0.189-5.744,0.66-8.193,1.131
	v7.629h28.633v-7.629c-2.449-0.471-5.368-0.941-8.195-1.131V62.138C32.9,62.328,34.314,62.328,35.443,62.328z M31.393,30.68
	c1.414-0.094,2.732-0.094,4.24-0.094c8.381,0,11.961,4.05,11.961,10.455c0,6.875-5.18,11.019-12.621,11.113
	c-1.13,0-2.355-0.094-3.58-0.281V30.68z"/>
<polygon fill="#BAD8E7" points="200.46,152.072 200.46,141.132 186.95,141.132 186.95,90.23 177.531,90.23 158.504,96.699 
	160.501,108.212 174.298,102.789 174.298,141.132 158.789,141.132 158.789,152.072 "/>
<path fill="#BAD8E7" d="M150.813,152.072v-11.701h-7.611c-6.946,0-13.13,0.094-17.603,0.191v-0.098l7.516-7.041
	c12.181-11.512,15.415-17.787,15.415-25.971c0-9.518-6.47-18.27-21.122-18.27c-6.946,0-13.414,2-18.172,4.662l2.379,10.848
	c3.234-2.285,7.99-4.379,13.129-4.379c6.753,0,10.372,3.998,10.372,9.229c0,5.045-2.475,9.229-17.033,23.502l-9.321,9.135v9.893
	H150.813z"/>
<rect x="3" y="3" fill="none" stroke="#BAD8E7" stroke-width="6" width="205.431" height="183.058"/>
</svg>
